<?xml version="1.0" encoding="utf-8"?>
<!-- Generator: Adobe Illustrator 19.0.0, SVG Export Plug-In . SVG Version: 6.00 Build 0)  -->
<svg version="1.1" xmlns="http://www.w3.org/2000/svg" xmlns:xlink="http://www.w3.org/1999/xlink" x="0px" y="0px"
	 viewBox="0 0 58.8 57.7" style="enable-background:new 0 0 58.8 57.7;" xml:space="preserve">
<style type="text/css">
	.st0{display:none;}
	.st1{display:inline;}
	.st2{fill:#EB001B;}
	.st3{fill:#FF5F00;}
	.st4{fill:#F79E1B;}
	.st5{fill:#1A1A1A;}
	.st6{fill:#FFFFFF;}
</style>
<g id="Layer_1" class="st0">
	<g id="XMLID_34_" class="st1">
		<g id="XMLID_10_">
			<circle id="XMLID_6_" class="st2" cx="-475.6" cy="28.8" r="27.9"/>
			<g id="XMLID_7_">
				<circle id="XMLID_8_" class="st3" cx="-482.3" cy="28.8" r="9.2"/>
				<circle id="XMLID_9_" class="st4" cx="-468.8" cy="28.8" r="9.2"/>
			</g>
		</g>
		<g>
			<path id="XMLID_1106_" class="st5" d="M-423.6,30.5h-8.7v8.4h-2.5V13.6h11.3c1.2,0,2.3,0.2,3.3,0.6c1,0.4,1.9,0.9,2.5,1.5
				c0.7,0.6,1.2,1.4,1.7,2.2c0.5,0.8,0.7,1.7,0.8,2.6c0.1,0.9,0.1,1.8,0,2.8c-0.1,0.9-0.4,1.8-0.8,2.7c-0.5,0.9-1,1.6-1.7,2.3
				c-0.7,0.6-1.5,1.2-2.5,1.5S-422.4,30.5-423.6,30.5z M-432.4,16v12.1h8.7c1.1,0,2-0.2,2.9-0.7c0.9-0.4,1.5-1,1.9-1.7
				c0.4-0.7,0.8-1.5,1-2.3c0.2-0.9,0.2-1.7,0-2.6c-0.2-0.9-0.5-1.6-1-2.4c-0.4-0.7-1.1-1.3-1.9-1.7c-0.9-0.4-1.8-0.7-2.9-0.7H-432.4
				z"/>
			<path id="XMLID_1109_" class="st5" d="M-410.7,17c-0.6-0.3-0.9-0.8-0.9-1.5c0-0.7,0.3-1.2,0.8-1.5c0.6-0.3,1.1-0.3,1.7,0
				s0.9,0.8,0.9,1.5c0,0.7-0.3,1.2-0.8,1.5C-409.6,17.3-410.2,17.3-410.7,17z M-408.7,21h-2.4v17.9h2.4V21z"/>
			<path id="XMLID_1112_" class="st5" d="M-386.6,38.8h-2.4v-10c0-1.9-0.5-3.3-1.5-4.3s-2.4-1.5-4.2-1.5c-1.7,0-3.1,0.6-4.2,1.8
				c-1.1,1.2-1.6,2.6-1.6,4.3v9.7h-2.4V21.1h2.3l0.1,3c1.4-2.2,3.5-3.3,6.2-3.3c2.4,0,4.3,0.7,5.7,2.1c1.5,1.4,2.2,3.4,2.2,6V38.8z"
				/>
			<path id="XMLID_1114_" class="st5" d="M-381.2,13.6h2.4v10.9c0.6-1.2,1.6-2.2,2.9-2.9c1.3-0.7,2.6-1,4.1-1c2.6,0,4.7,0.8,6.4,2.4
				c1.7,1.6,2.5,3.9,2.5,6.8c0,2.9-0.8,5.1-2.5,6.8c-1.7,1.6-3.8,2.4-6.4,2.4c-3.2,0-5.5-1.2-7-3.7l-0.1,3.4h-2.3V13.6z
				 M-367.2,24.9c-1.3-1.2-2.9-1.8-4.8-1.8c-1.9,0-3.5,0.6-4.8,1.9c-1.3,1.3-1.9,2.9-1.9,4.9c0,2,0.6,3.7,1.9,5
				c1.3,1.3,2.9,1.9,4.8,1.9c1.9,0,3.5-0.6,4.8-1.8c1.3-1.2,1.9-2.9,1.9-5.1C-365.3,27.8-365.9,26.1-367.2,24.9z"/>
			<path id="XMLID_1117_" class="st5" d="M-350.4,20.7c2.6,0,4.8,0.9,6.5,2.6s2.6,3.9,2.6,6.7c0,2.7-0.9,4.9-2.6,6.6
				c-1.7,1.7-3.9,2.5-6.6,2.5c-2.6,0-4.8-0.8-6.6-2.5c-1.7-1.7-2.6-3.9-2.6-6.6c0-2.7,0.9-5,2.6-6.7
				C-355.2,21.6-353,20.7-350.4,20.7z M-345.5,24.9c-1.3-1.3-2.9-2-4.8-2s-3.6,0.7-4.8,2c-1.3,1.3-1.9,3-1.9,5.1
				c0,2.1,0.6,3.7,1.9,5s2.9,1.9,4.8,1.9c2,0,3.6-0.6,4.9-1.9c1.2-1.3,1.9-2.9,1.9-5C-343.6,27.9-344.3,26.2-345.5,24.9z"/>
			<path id="XMLID_1120_" class="st5" d="M-321.8,24.6v-3.5h2.3v17.8h-2.2v-3.5c-0.7,1.3-1.8,2.2-3,2.9c-1.3,0.7-2.6,1-4,1
				c-2.6,0-4.8-0.9-6.5-2.6c-1.7-1.7-2.6-3.9-2.6-6.7c0-2.7,0.9-4.9,2.6-6.6c1.7-1.7,3.9-2.5,6.5-2.5c1.4,0,2.8,0.3,4.1,1
				S-322.5,23.4-321.8,24.6z M-328.7,23c-1.9,0-3.5,0.6-4.8,1.9s-1.9,3-1.9,5c0,2.1,0.6,3.7,1.9,5s2.9,1.9,4.8,1.9
				c1.2,0,2.4-0.3,3.4-0.8c1-0.5,1.7-1.2,2.3-2c0.5-0.8,0.9-1.7,1.1-2.7c0.2-1,0.2-2,0-3c-0.2-1-0.6-1.9-1.1-2.7s-1.3-1.5-2.3-2
				C-326.4,23.3-327.5,23-328.7,23z"/>
			<path id="XMLID_1123_" class="st5" d="M-313.9,21.1h2.3l0.1,2.9c0.5-1.1,1.3-1.9,2.3-2.4s2.1-0.8,3.3-0.8c1.5,0,2.8,0.4,4,1.3
				l-1.1,2c-0.9-0.6-1.9-0.9-3.1-0.9c-1.6,0-2.9,0.6-3.9,1.6c-1.1,1.1-1.6,2.4-1.6,4v10.1h-2.4V21.1z"/>
			<path id="XMLID_1125_" class="st5" d="M-284,13.6h2.4v25.2h-2.3l-0.1-3.6c-0.7,1.2-1.7,2.2-2.9,2.9c-1.3,0.7-2.6,1-4,1
				c-2.6,0-4.8-0.8-6.4-2.4s-2.5-3.9-2.5-6.8c0-2.9,0.8-5.1,2.5-6.8c1.7-1.6,3.8-2.4,6.4-2.4c1.5,0,2.8,0.3,4.1,1
				c1.3,0.7,2.2,1.6,2.9,2.9V13.6z M-290.9,23c-1.9,0-3.5,0.6-4.8,1.8s-1.9,2.9-1.9,5.1c0,2.2,0.6,3.9,1.9,5.1
				c1.3,1.2,2.9,1.8,4.8,1.8s3.5-0.6,4.8-1.9c1.3-1.3,1.9-3,1.9-5c0-2-0.6-3.7-1.9-4.9C-287.4,23.7-289,23-290.9,23z"/>
		</g>
		<g id="XMLID_5_">
			<path id="XMLID_1061_" class="st5" d="M-423.6,30.5h-8.7v8.4h-2.5V13.6h11.3c1.2,0,2.3,0.2,3.3,0.6c1,0.4,1.9,0.9,2.5,1.5
				c0.7,0.6,1.2,1.4,1.7,2.2c0.5,0.8,0.7,1.7,0.8,2.6c0.1,0.9,0.1,1.8,0,2.8c-0.1,0.9-0.4,1.8-0.8,2.7c-0.5,0.9-1,1.6-1.7,2.3
				c-0.7,0.6-1.5,1.2-2.5,1.5S-422.4,30.5-423.6,30.5z M-432.4,16v12.1h8.7c1.1,0,2-0.2,2.9-0.7c0.9-0.4,1.5-1,1.9-1.7
				c0.4-0.7,0.8-1.5,1-2.3c0.2-0.9,0.2-1.7,0-2.6c-0.2-0.9-0.5-1.6-1-2.4c-0.4-0.7-1.1-1.3-1.9-1.7c-0.9-0.4-1.8-0.7-2.9-0.7H-432.4
				z"/>
			<path id="XMLID_1064_" class="st5" d="M-410.7,17c-0.6-0.3-0.9-0.8-0.9-1.5c0-0.7,0.3-1.2,0.8-1.5c0.6-0.3,1.1-0.3,1.7,0
				s0.9,0.8,0.9,1.5c0,0.7-0.3,1.2-0.8,1.5C-409.6,17.3-410.2,17.3-410.7,17z M-408.7,21h-2.4v17.9h2.4V21z"/>
			<path id="XMLID_1067_" class="st5" d="M-386.6,38.8h-2.4v-10c0-1.9-0.5-3.3-1.5-4.3s-2.4-1.5-4.2-1.5c-1.7,0-3.1,0.6-4.2,1.8
				c-1.1,1.2-1.6,2.6-1.6,4.3v9.7h-2.4V21.1h2.3l0.1,3c1.4-2.2,3.5-3.3,6.2-3.3c2.4,0,4.3,0.7,5.7,2.1c1.5,1.4,2.2,3.4,2.2,6V38.8z"
				/>
			<path id="XMLID_1069_" class="st5" d="M-381.2,13.6h2.4v10.9c0.6-1.2,1.6-2.2,2.9-2.9c1.3-0.7,2.6-1,4.1-1c2.6,0,4.7,0.8,6.4,2.4
				c1.7,1.6,2.5,3.9,2.5,6.8c0,2.9-0.8,5.1-2.5,6.8c-1.7,1.6-3.8,2.4-6.4,2.4c-3.2,0-5.5-1.2-7-3.7l-0.1,3.4h-2.3V13.6z
				 M-367.2,24.9c-1.3-1.2-2.9-1.8-4.8-1.8c-1.9,0-3.5,0.6-4.8,1.9c-1.3,1.3-1.9,2.9-1.9,4.9c0,2,0.6,3.7,1.9,5
				c1.3,1.3,2.9,1.9,4.8,1.9c1.9,0,3.5-0.6,4.8-1.8c1.3-1.2,1.9-2.9,1.9-5.1C-365.3,27.8-365.9,26.1-367.2,24.9z"/>
			<path id="XMLID_1072_" class="st5" d="M-350.4,20.7c2.6,0,4.8,0.9,6.5,2.6s2.6,3.9,2.6,6.7c0,2.7-0.9,4.9-2.6,6.6
				c-1.7,1.7-3.9,2.5-6.6,2.5c-2.6,0-4.8-0.8-6.6-2.5c-1.7-1.7-2.6-3.9-2.6-6.6c0-2.7,0.9-5,2.6-6.7
				C-355.2,21.6-353,20.7-350.4,20.7z M-345.5,24.9c-1.3-1.3-2.9-2-4.8-2s-3.6,0.7-4.8,2c-1.3,1.3-1.9,3-1.9,5.1
				c0,2.1,0.6,3.7,1.9,5s2.9,1.9,4.8,1.9c2,0,3.6-0.6,4.9-1.9c1.2-1.3,1.9-2.9,1.9-5C-343.6,27.9-344.3,26.2-345.5,24.9z"/>
			<path id="XMLID_1075_" class="st5" d="M-321.8,24.6v-3.5h2.3v17.8h-2.2v-3.5c-0.7,1.3-1.8,2.2-3,2.9c-1.3,0.7-2.6,1-4,1
				c-2.6,0-4.8-0.9-6.5-2.6c-1.7-1.7-2.6-3.9-2.6-6.7c0-2.7,0.9-4.9,2.6-6.6c1.7-1.7,3.9-2.5,6.5-2.5c1.4,0,2.8,0.3,4.1,1
				S-322.5,23.4-321.8,24.6z M-328.7,23c-1.9,0-3.5,0.6-4.8,1.9s-1.9,3-1.9,5c0,2.1,0.6,3.7,1.9,5s2.9,1.9,4.8,1.9
				c1.2,0,2.4-0.3,3.4-0.8c1-0.5,1.7-1.2,2.3-2c0.5-0.8,0.9-1.7,1.1-2.7c0.2-1,0.2-2,0-3c-0.2-1-0.6-1.9-1.1-2.7s-1.3-1.5-2.3-2
				C-326.4,23.3-327.5,23-328.7,23z"/>
			<path id="XMLID_1078_" class="st5" d="M-313.9,21.1h2.3l0.1,2.9c0.5-1.1,1.3-1.9,2.3-2.4s2.1-0.8,3.3-0.8c1.5,0,2.8,0.4,4,1.3
				l-1.1,2c-0.9-0.6-1.9-0.9-3.1-0.9c-1.6,0-2.9,0.6-3.9,1.6c-1.1,1.1-1.6,2.4-1.6,4v10.1h-2.4V21.1z"/>
			<path id="XMLID_1080_" class="st5" d="M-284,13.6h2.4v25.2h-2.3l-0.1-3.6c-0.7,1.2-1.7,2.2-2.9,2.9c-1.3,0.7-2.6,1-4,1
				c-2.6,0-4.8-0.8-6.4-2.4s-2.5-3.9-2.5-6.8c0-2.9,0.8-5.1,2.5-6.8c1.7-1.6,3.8-2.4,6.4-2.4c1.5,0,2.8,0.3,4.1,1
				c1.3,0.7,2.2,1.6,2.9,2.9V13.6z M-290.9,23c-1.9,0-3.5,0.6-4.8,1.8s-1.9,2.9-1.9,5.1c0,2.2,0.6,3.9,1.9,5.1
				c1.3,1.2,2.9,1.8,4.8,1.8s3.5-0.6,4.8-1.9c1.3-1.3,1.9-3,1.9-5c0-2-0.6-3.7-1.9-4.9C-287.4,23.7-289,23-290.9,23z"/>
		</g>
	</g>
</g>
<g id="Layer_2" class="st0">
	<g id="XMLID_760_" class="st1">
		<g id="XMLID_36_">
			<circle id="XMLID_40_" class="st2" cx="-225.6" cy="28.8" r="27.9"/>
			<g id="XMLID_37_">
				<circle id="XMLID_39_" class="st3" cx="-232.3" cy="28.8" r="9.2"/>
				<circle id="XMLID_38_" class="st4" cx="-218.8" cy="28.8" r="9.2"/>
			</g>
		</g>
		<g>
			<path id="XMLID_1128_" class="st6" d="M-173.6,30.5h-8.7v8.4h-2.5V13.6h11.3c1.2,0,2.3,0.2,3.3,0.6c1,0.4,1.9,0.9,2.5,1.5
				c0.7,0.6,1.2,1.4,1.7,2.2c0.5,0.8,0.7,1.7,0.8,2.6c0.1,0.9,0.1,1.8,0,2.8s-0.4,1.8-0.8,2.7c-0.5,0.9-1,1.6-1.7,2.3
				c-0.7,0.6-1.5,1.2-2.5,1.5C-171.3,30.3-172.4,30.5-173.6,30.5z M-182.4,16v12.1h8.7c1.1,0,2-0.2,2.9-0.7c0.9-0.4,1.5-1,1.9-1.7
				c0.4-0.7,0.8-1.5,1-2.3c0.2-0.9,0.2-1.7,0-2.6c-0.2-0.9-0.5-1.6-1-2.4c-0.4-0.7-1.1-1.3-1.9-1.7c-0.9-0.4-1.8-0.7-2.9-0.7H-182.4
				z"/>
			<path id="XMLID_1131_" class="st6" d="M-160.7,17c-0.6-0.3-0.9-0.8-0.9-1.5c0-0.7,0.3-1.2,0.8-1.5c0.6-0.3,1.1-0.3,1.7,0
				s0.9,0.8,0.9,1.5c0,0.7-0.3,1.2-0.8,1.5C-159.6,17.3-160.2,17.3-160.7,17z M-158.7,21h-2.4v17.9h2.4V21z"/>
			<path id="XMLID_1134_" class="st6" d="M-136.6,38.8h-2.4v-10c0-1.9-0.5-3.3-1.5-4.3s-2.4-1.5-4.2-1.5c-1.7,0-3.1,0.6-4.2,1.8
				c-1.1,1.2-1.6,2.6-1.6,4.3v9.7h-2.4V21.1h2.3l0.1,3c1.4-2.2,3.5-3.3,6.2-3.3c2.4,0,4.3,0.7,5.7,2.1c1.5,1.4,2.2,3.4,2.2,6V38.8z"
				/>
			<path id="XMLID_1136_" class="st6" d="M-131.2,13.6h2.4v10.9c0.6-1.2,1.6-2.2,2.9-2.9c1.3-0.7,2.6-1,4.1-1c2.6,0,4.7,0.8,6.4,2.4
				c1.7,1.6,2.5,3.9,2.5,6.8c0,2.9-0.8,5.1-2.5,6.8c-1.7,1.6-3.8,2.4-6.4,2.4c-3.2,0-5.5-1.2-7-3.7l-0.1,3.4h-2.3V13.6z
				 M-117.2,24.9c-1.3-1.2-2.9-1.8-4.8-1.8c-1.9,0-3.5,0.6-4.8,1.9c-1.3,1.3-1.9,2.9-1.9,4.9c0,2,0.6,3.7,1.9,5
				c1.3,1.3,2.9,1.9,4.8,1.9c1.9,0,3.5-0.6,4.8-1.8c1.3-1.2,1.9-2.9,1.9-5.1C-115.3,27.8-115.9,26.1-117.2,24.9z"/>
			<path id="XMLID_1139_" class="st6" d="M-100.4,20.7c2.6,0,4.8,0.9,6.5,2.6s2.6,3.9,2.6,6.7c0,2.7-0.9,4.9-2.6,6.6
				c-1.7,1.7-3.9,2.5-6.6,2.5c-2.6,0-4.8-0.8-6.6-2.5c-1.7-1.7-2.6-3.9-2.6-6.6c0-2.7,0.9-5,2.6-6.7
				C-105.2,21.6-103,20.7-100.4,20.7z M-95.5,24.9c-1.3-1.3-2.9-2-4.8-2s-3.6,0.7-4.8,2c-1.3,1.3-1.9,3-1.9,5.1c0,2.1,0.6,3.7,1.9,5
				s2.9,1.9,4.8,1.9c2,0,3.6-0.6,4.9-1.9c1.2-1.3,1.9-2.9,1.9-5C-93.6,27.9-94.3,26.2-95.5,24.9z"/>
			<path id="XMLID_1142_" class="st6" d="M-71.8,24.6v-3.5h2.3v17.8h-2.2v-3.5c-0.7,1.3-1.8,2.2-3,2.9c-1.3,0.7-2.6,1-4,1
				c-2.6,0-4.8-0.9-6.5-2.6c-1.7-1.7-2.6-3.9-2.6-6.7c0-2.7,0.9-4.9,2.6-6.6c1.7-1.7,3.9-2.5,6.5-2.5c1.4,0,2.8,0.3,4.1,1
				S-72.5,23.4-71.8,24.6z M-78.7,23c-1.9,0-3.5,0.6-4.8,1.9s-1.9,3-1.9,5c0,2.1,0.6,3.7,1.9,5s2.9,1.9,4.8,1.9
				c1.2,0,2.4-0.3,3.4-0.8c1-0.5,1.7-1.2,2.3-2c0.5-0.8,0.9-1.7,1.1-2.7c0.2-1,0.2-2,0-3c-0.2-1-0.6-1.9-1.1-2.7s-1.3-1.5-2.3-2
				C-76.4,23.3-77.5,23-78.7,23z"/>
			<path id="XMLID_1145_" class="st6" d="M-63.9,21.1h2.3l0.1,2.9c0.5-1.1,1.3-1.9,2.3-2.4s2.1-0.8,3.3-0.8c1.5,0,2.8,0.4,4,1.3
				l-1.1,2c-0.9-0.6-1.9-0.9-3.1-0.9c-1.6,0-2.9,0.6-3.9,1.6c-1.1,1.1-1.6,2.4-1.6,4v10.1h-2.4V21.1z"/>
			<path id="XMLID_1147_" class="st6" d="M-34,13.6h2.4v25.2H-34l-0.1-3.6c-0.7,1.2-1.7,2.2-2.9,2.9c-1.3,0.7-2.6,1-4,1
				c-2.6,0-4.8-0.8-6.4-2.4s-2.5-3.9-2.5-6.8c0-2.9,0.8-5.1,2.5-6.8c1.7-1.6,3.8-2.4,6.4-2.4c1.5,0,2.8,0.3,4.1,1
				c1.3,0.7,2.2,1.6,2.9,2.9V13.6z M-40.9,23c-1.9,0-3.5,0.6-4.8,1.8s-1.9,2.9-1.9,5.1c0,2.2,0.6,3.9,1.9,5.1
				c1.3,1.2,2.9,1.8,4.8,1.8s3.5-0.6,4.8-1.9c1.3-1.3,1.9-3,1.9-5c0-2-0.6-3.7-1.9-4.9C-37.4,23.7-39,23-40.9,23z"/>
		</g>
		<g id="XMLID_35_">
			<path id="XMLID_1083_" class="st6" d="M-173.6,30.5h-8.7v8.4h-2.5V13.6h11.3c1.2,0,2.3,0.2,3.3,0.6c1,0.4,1.9,0.9,2.5,1.5
				c0.7,0.6,1.2,1.4,1.7,2.2c0.5,0.8,0.7,1.7,0.8,2.6c0.1,0.9,0.1,1.8,0,2.8s-0.4,1.8-0.8,2.7c-0.5,0.9-1,1.6-1.7,2.3
				c-0.7,0.6-1.5,1.2-2.5,1.5C-171.3,30.3-172.4,30.5-173.6,30.5z M-182.4,16v12.1h8.7c1.1,0,2-0.2,2.9-0.7c0.9-0.4,1.5-1,1.9-1.7
				c0.4-0.7,0.8-1.5,1-2.3c0.2-0.9,0.2-1.7,0-2.6c-0.2-0.9-0.5-1.6-1-2.4c-0.4-0.7-1.1-1.3-1.9-1.7c-0.9-0.4-1.8-0.7-2.9-0.7H-182.4
				z"/>
			<path id="XMLID_1086_" class="st6" d="M-160.7,17c-0.6-0.3-0.9-0.8-0.9-1.5c0-0.7,0.3-1.2,0.8-1.5c0.6-0.3,1.1-0.3,1.7,0
				s0.9,0.8,0.9,1.5c0,0.7-0.3,1.2-0.8,1.5C-159.6,17.3-160.2,17.3-160.7,17z M-158.7,21h-2.4v17.9h2.4V21z"/>
			<path id="XMLID_1089_" class="st6" d="M-136.6,38.8h-2.4v-10c0-1.9-0.5-3.3-1.5-4.3s-2.4-1.5-4.2-1.5c-1.7,0-3.1,0.6-4.2,1.8
				c-1.1,1.2-1.6,2.6-1.6,4.3v9.7h-2.4V21.1h2.3l0.1,3c1.4-2.2,3.5-3.3,6.2-3.3c2.4,0,4.3,0.7,5.7,2.1c1.5,1.4,2.2,3.4,2.2,6V38.8z"
				/>
			<path id="XMLID_1091_" class="st6" d="M-131.2,13.6h2.4v10.9c0.6-1.2,1.6-2.2,2.9-2.9c1.3-0.7,2.6-1,4.1-1c2.6,0,4.7,0.8,6.4,2.4
				c1.7,1.6,2.5,3.9,2.5,6.8c0,2.9-0.8,5.1-2.5,6.8c-1.7,1.6-3.8,2.4-6.4,2.4c-3.2,0-5.5-1.2-7-3.7l-0.1,3.4h-2.3V13.6z
				 M-117.2,24.9c-1.3-1.2-2.9-1.8-4.8-1.8c-1.9,0-3.5,0.6-4.8,1.9c-1.3,1.3-1.9,2.9-1.9,4.9c0,2,0.6,3.7,1.9,5
				c1.3,1.3,2.9,1.9,4.8,1.9c1.9,0,3.5-0.6,4.8-1.8c1.3-1.2,1.9-2.9,1.9-5.1C-115.3,27.8-115.9,26.1-117.2,24.9z"/>
			<path id="XMLID_1094_" class="st6" d="M-100.4,20.7c2.6,0,4.8,0.9,6.5,2.6s2.6,3.9,2.6,6.7c0,2.7-0.9,4.9-2.6,6.6
				c-1.7,1.7-3.9,2.5-6.6,2.5c-2.6,0-4.8-0.8-6.6-2.5c-1.7-1.7-2.6-3.9-2.6-6.6c0-2.7,0.9-5,2.6-6.7
				C-105.2,21.6-103,20.7-100.4,20.7z M-95.5,24.9c-1.3-1.3-2.9-2-4.8-2s-3.6,0.7-4.8,2c-1.3,1.3-1.9,3-1.9,5.1c0,2.1,0.6,3.7,1.9,5
				s2.9,1.9,4.8,1.9c2,0,3.6-0.6,4.9-1.9c1.2-1.3,1.9-2.9,1.9-5C-93.6,27.9-94.3,26.2-95.5,24.9z"/>
			<path id="XMLID_1097_" class="st6" d="M-71.8,24.6v-3.5h2.3v17.8h-2.2v-3.5c-0.7,1.3-1.8,2.2-3,2.9c-1.3,0.7-2.6,1-4,1
				c-2.6,0-4.8-0.9-6.5-2.6c-1.7-1.7-2.6-3.9-2.6-6.7c0-2.7,0.9-4.9,2.6-6.6c1.7-1.7,3.9-2.5,6.5-2.5c1.4,0,2.8,0.3,4.1,1
				S-72.5,23.4-71.8,24.6z M-78.7,23c-1.9,0-3.5,0.6-4.8,1.9s-1.9,3-1.9,5c0,2.1,0.6,3.7,1.9,5s2.9,1.9,4.8,1.9
				c1.2,0,2.4-0.3,3.4-0.8c1-0.5,1.7-1.2,2.3-2c0.5-0.8,0.9-1.7,1.1-2.7c0.2-1,0.2-2,0-3c-0.2-1-0.6-1.9-1.1-2.7s-1.3-1.5-2.3-2
				C-76.4,23.3-77.5,23-78.7,23z"/>
			<path id="XMLID_1100_" class="st6" d="M-63.9,21.1h2.3l0.1,2.9c0.5-1.1,1.3-1.9,2.3-2.4s2.1-0.8,3.3-0.8c1.5,0,2.8,0.4,4,1.3
				l-1.1,2c-0.9-0.6-1.9-0.9-3.1-0.9c-1.6,0-2.9,0.6-3.9,1.6c-1.1,1.1-1.6,2.4-1.6,4v10.1h-2.4V21.1z"/>
			<path id="XMLID_1102_" class="st6" d="M-34,13.6h2.4v25.2H-34l-0.1-3.6c-0.7,1.2-1.7,2.2-2.9,2.9c-1.3,0.7-2.6,1-4,1
				c-2.6,0-4.8-0.8-6.4-2.4s-2.5-3.9-2.5-6.8c0-2.9,0.8-5.1,2.5-6.8c1.7-1.6,3.8-2.4,6.4-2.4c1.5,0,2.8,0.3,4.1,1
				c1.3,0.7,2.2,1.6,2.9,2.9V13.6z M-40.9,23c-1.9,0-3.5,0.6-4.8,1.8s-1.9,2.9-1.9,5.1c0,2.2,0.6,3.9,1.9,5.1
				c1.3,1.2,2.9,1.8,4.8,1.8s3.5-0.6,4.8-1.9c1.3-1.3,1.9-3,1.9-5c0-2-0.6-3.7-1.9-4.9C-37.4,23.7-39,23-40.9,23z"/>
		</g>
	</g>
</g>
<g id="Layer_3">
	<g id="XMLID_69_">
		<circle id="XMLID_73_" class="st2" cx="29.4" cy="28.8" r="27.9"/>
		<g id="XMLID_70_">
			<circle id="XMLID_72_" class="st3" cx="22.7" cy="28.8" r="9.2"/>
			<circle id="XMLID_71_" class="st4" cx="36.1" cy="28.8" r="9.2"/>
		</g>
	</g>
</g>
</svg>
