<?xml version="1.0" encoding="utf-8"?>
<!-- Generator: Adobe Illustrator 19.0.0, SVG Export Plug-In . SVG Version: 6.00 Build 0)  -->
<svg version="1.1" xmlns="http://www.w3.org/2000/svg" xmlns:xlink="http://www.w3.org/1999/xlink" x="0px" y="0px"
	 viewBox="0 0 236.7 61" style="enable-background:new 0 0 236.7 61;" xml:space="preserve">
<style type="text/css">
	.st0{fill:#EB001B;}
	.st1{fill:#FF5F00;}
	.st2{fill:#F79E1B;}
	.st3{fill:#1A1A1A;}
	.st4{display:none;}
	.st5{display:inline;}
	.st6{fill:#FFFFFF;}
</style>
<g id="Layer_1">
	<g id="XMLID_34_">
		<g id="XMLID_10_">
			<circle id="XMLID_6_" class="st0" cx="33.9" cy="30.5" r="27.9"/>
			<g id="XMLID_7_">
				<circle id="XMLID_8_" class="st1" cx="27.2" cy="30.5" r="9.2"/>
				<circle id="XMLID_9_" class="st2" cx="40.7" cy="30.5" r="9.2"/>
			</g>
		</g>
		<g id="XMLID_1154_">
			<path id="XMLID_1155_" class="st3" d="M85.9,32.1h-8.7v8.4h-2.5V15.3h11.3c1.2,0,2.3,0.2,3.3,0.6c1,0.4,1.9,0.9,2.5,1.5
				s1.2,1.4,1.7,2.2c0.5,0.8,0.7,1.7,0.8,2.6c0.1,0.9,0.1,1.8,0,2.8c-0.1,0.9-0.4,1.8-0.8,2.7c-0.5,0.9-1,1.6-1.7,2.3
				c-0.7,0.6-1.5,1.2-2.5,1.5S87.1,32.1,85.9,32.1z M77.1,17.7v12.1h8.7c1.1,0,2-0.2,2.9-0.7c0.9-0.4,1.5-1,1.9-1.7
				c0.4-0.7,0.8-1.5,1-2.3c0.2-0.9,0.2-1.7,0-2.6c-0.2-0.9-0.5-1.6-1-2.4c-0.4-0.7-1.1-1.3-1.9-1.7c-0.9-0.4-1.8-0.7-2.9-0.7H77.1z"
				/>
			<path id="XMLID_1158_" class="st3" d="M98.8,18.7c-0.6-0.3-0.9-0.8-0.9-1.5c0-0.7,0.3-1.2,0.8-1.5c0.6-0.3,1.1-0.3,1.7,0
				s0.9,0.8,0.9,1.5c0,0.7-0.3,1.2-0.8,1.5C99.9,18.9,99.3,18.9,98.8,18.7z M100.8,22.7h-2.4v17.9h2.4V22.7z"/>
			<path id="XMLID_1161_" class="st3" d="M122.9,40.5h-2.4v-10c0-1.9-0.5-3.3-1.5-4.3s-2.4-1.5-4.2-1.5c-1.7,0-3.1,0.6-4.2,1.8
				c-1.1,1.2-1.6,2.6-1.6,4.3v9.7h-2.4V22.7h2.3l0.1,3c1.4-2.2,3.5-3.3,6.2-3.3c2.4,0,4.3,0.7,5.7,2.1c1.5,1.4,2.2,3.4,2.2,6V40.5z"
				/>
			<path id="XMLID_1163_" class="st3" d="M128.3,15.3h2.4v10.9c0.6-1.2,1.6-2.2,2.9-2.9c1.3-0.7,2.6-1,4.1-1c2.6,0,4.7,0.8,6.4,2.4
				c1.7,1.6,2.5,3.9,2.5,6.8c0,2.9-0.8,5.1-2.5,6.8c-1.7,1.6-3.8,2.4-6.4,2.4c-3.2,0-5.5-1.2-7-3.7l-0.1,3.4h-2.3V15.3z M142.3,26.5
				c-1.3-1.2-2.9-1.8-4.8-1.8c-1.9,0-3.5,0.6-4.8,1.9c-1.3,1.3-1.9,2.9-1.9,4.9c0,2,0.6,3.7,1.9,5c1.3,1.3,2.9,1.9,4.8,1.9
				c1.9,0,3.5-0.6,4.8-1.8c1.3-1.2,1.9-2.9,1.9-5.1C144.2,29.4,143.6,27.7,142.3,26.5z"/>
			<path id="XMLID_1166_" class="st3" d="M159.1,22.4c2.6,0,4.8,0.9,6.5,2.6s2.6,3.9,2.6,6.7c0,2.7-0.9,4.9-2.6,6.6
				c-1.7,1.7-3.9,2.5-6.6,2.5c-2.6,0-4.8-0.8-6.6-2.5c-1.7-1.7-2.6-3.9-2.6-6.6c0-2.7,0.9-5,2.6-6.7
				C154.3,23.3,156.5,22.4,159.1,22.4z M164,26.6c-1.3-1.3-2.9-2-4.8-2s-3.6,0.7-4.8,2c-1.3,1.3-1.9,3-1.9,5.1c0,2.1,0.6,3.7,1.9,5
				s2.9,1.9,4.8,1.9c2,0,3.6-0.6,4.9-1.9c1.2-1.3,1.9-2.9,1.9-5C165.9,29.6,165.2,27.9,164,26.6z"/>
			<path id="XMLID_1169_" class="st3" d="M187.7,26.3v-3.5h2.3v17.8h-2.2V37c-0.7,1.3-1.8,2.2-3,2.9c-1.3,0.7-2.6,1-4,1
				c-2.6,0-4.8-0.9-6.5-2.6c-1.7-1.7-2.6-3.9-2.6-6.7c0-2.7,0.9-4.9,2.6-6.6c1.7-1.7,3.9-2.5,6.5-2.5c1.4,0,2.8,0.3,4.1,1
				S187,25.1,187.7,26.3z M180.8,24.7c-1.9,0-3.5,0.6-4.8,1.9s-1.9,3-1.9,5c0,2.1,0.6,3.7,1.9,5s2.9,1.9,4.8,1.9
				c1.2,0,2.4-0.3,3.4-0.8c1-0.5,1.7-1.2,2.3-2c0.5-0.8,0.9-1.7,1.1-2.7s0.2-2,0-3c-0.2-1-0.6-1.9-1.1-2.7s-1.3-1.5-2.3-2
				C183.1,24.9,182,24.7,180.8,24.7z"/>
			<path id="XMLID_1172_" class="st3" d="M195.6,22.7h2.3l0.1,2.9c0.5-1.1,1.3-1.9,2.3-2.4s2.1-0.8,3.3-0.8c1.5,0,2.8,0.4,4,1.3
				l-1.1,2c-0.9-0.6-1.9-0.9-3.1-0.9c-1.6,0-2.9,0.6-3.9,1.6c-1.1,1.1-1.6,2.4-1.6,4v10.1h-2.4V22.7z"/>
			<path id="XMLID_1174_" class="st3" d="M225.5,15.3h2.4v25.2h-2.3l-0.1-3.6c-0.7,1.2-1.7,2.2-2.9,2.9c-1.3,0.7-2.6,1-4,1
				c-2.6,0-4.8-0.8-6.4-2.4s-2.5-3.9-2.5-6.8c0-2.9,0.8-5.1,2.5-6.8c1.7-1.6,3.8-2.4,6.4-2.4c1.5,0,2.8,0.3,4.1,1
				c1.3,0.7,2.2,1.6,2.9,2.9V15.3z M218.6,24.7c-1.9,0-3.5,0.6-4.8,1.8s-1.9,2.9-1.9,5.1c0,2.2,0.6,3.9,1.9,5.1
				c1.3,1.2,2.9,1.8,4.8,1.8s3.5-0.6,4.8-1.9c1.3-1.3,1.9-3,1.9-5c0-2-0.6-3.7-1.9-4.9C222.1,25.3,220.5,24.7,218.6,24.7z"/>
		</g>
		<g id="XMLID_1131_">
			<path id="XMLID_1132_" class="st3" d="M85.9,32.1h-8.7v8.4h-2.5V15.3h11.3c1.2,0,2.3,0.2,3.3,0.6c1,0.4,1.9,0.9,2.5,1.5
				s1.2,1.4,1.7,2.2c0.5,0.8,0.7,1.7,0.8,2.6c0.1,0.9,0.1,1.8,0,2.8c-0.1,0.9-0.4,1.8-0.8,2.7c-0.5,0.9-1,1.6-1.7,2.3
				c-0.7,0.6-1.5,1.2-2.5,1.5S87.1,32.1,85.9,32.1z M77.1,17.7v12.1h8.7c1.1,0,2-0.2,2.9-0.7c0.9-0.4,1.5-1,1.9-1.7
				c0.4-0.7,0.8-1.5,1-2.3c0.2-0.9,0.2-1.7,0-2.6c-0.2-0.9-0.5-1.6-1-2.4c-0.4-0.7-1.1-1.3-1.9-1.7c-0.9-0.4-1.8-0.7-2.9-0.7H77.1z"
				/>
			<path id="XMLID_1135_" class="st3" d="M98.8,18.7c-0.6-0.3-0.9-0.8-0.9-1.5c0-0.7,0.3-1.2,0.8-1.5c0.6-0.3,1.1-0.3,1.7,0
				s0.9,0.8,0.9,1.5c0,0.7-0.3,1.2-0.8,1.5C99.9,18.9,99.3,18.9,98.8,18.7z M100.8,22.7h-2.4v17.9h2.4V22.7z"/>
			<path id="XMLID_1138_" class="st3" d="M122.9,40.5h-2.4v-10c0-1.9-0.5-3.3-1.5-4.3s-2.4-1.5-4.2-1.5c-1.7,0-3.1,0.6-4.2,1.8
				c-1.1,1.2-1.6,2.6-1.6,4.3v9.7h-2.4V22.7h2.3l0.1,3c1.4-2.2,3.5-3.3,6.2-3.3c2.4,0,4.3,0.7,5.7,2.1c1.5,1.4,2.2,3.4,2.2,6V40.5z"
				/>
			<path id="XMLID_1140_" class="st3" d="M128.3,15.3h2.4v10.9c0.6-1.2,1.6-2.2,2.9-2.9c1.3-0.7,2.6-1,4.1-1c2.6,0,4.7,0.8,6.4,2.4
				c1.7,1.6,2.5,3.9,2.5,6.8c0,2.9-0.8,5.1-2.5,6.8c-1.7,1.6-3.8,2.4-6.4,2.4c-3.2,0-5.5-1.2-7-3.7l-0.1,3.4h-2.3V15.3z M142.3,26.5
				c-1.3-1.2-2.9-1.8-4.8-1.8c-1.9,0-3.5,0.6-4.8,1.9c-1.3,1.3-1.9,2.9-1.9,4.9c0,2,0.6,3.7,1.9,5c1.3,1.3,2.9,1.9,4.8,1.9
				c1.9,0,3.5-0.6,4.8-1.8c1.3-1.2,1.9-2.9,1.9-5.1C144.2,29.4,143.6,27.7,142.3,26.5z"/>
			<path id="XMLID_1143_" class="st3" d="M159.1,22.4c2.6,0,4.8,0.9,6.5,2.6s2.6,3.9,2.6,6.7c0,2.7-0.9,4.9-2.6,6.6
				c-1.7,1.7-3.9,2.5-6.6,2.5c-2.6,0-4.8-0.8-6.6-2.5c-1.7-1.7-2.6-3.9-2.6-6.6c0-2.7,0.9-5,2.6-6.7
				C154.3,23.3,156.5,22.4,159.1,22.4z M164,26.6c-1.3-1.3-2.9-2-4.8-2s-3.6,0.7-4.8,2c-1.3,1.3-1.9,3-1.9,5.1c0,2.1,0.6,3.7,1.9,5
				s2.9,1.9,4.8,1.9c2,0,3.6-0.6,4.9-1.9c1.2-1.3,1.9-2.9,1.9-5C165.9,29.6,165.2,27.9,164,26.6z"/>
			<path id="XMLID_1146_" class="st3" d="M187.7,26.3v-3.5h2.3v17.8h-2.2V37c-0.7,1.3-1.8,2.2-3,2.9c-1.3,0.7-2.6,1-4,1
				c-2.6,0-4.8-0.9-6.5-2.6c-1.7-1.7-2.6-3.9-2.6-6.7c0-2.7,0.9-4.9,2.6-6.6c1.7-1.7,3.9-2.5,6.5-2.5c1.4,0,2.8,0.3,4.1,1
				S187,25.1,187.7,26.3z M180.8,24.7c-1.9,0-3.5,0.6-4.8,1.9s-1.9,3-1.9,5c0,2.1,0.6,3.7,1.9,5s2.9,1.9,4.8,1.9
				c1.2,0,2.4-0.3,3.4-0.8c1-0.5,1.7-1.2,2.3-2c0.5-0.8,0.9-1.7,1.1-2.7s0.2-2,0-3c-0.2-1-0.6-1.9-1.1-2.7s-1.3-1.5-2.3-2
				C183.1,24.9,182,24.7,180.8,24.7z"/>
			<path id="XMLID_1149_" class="st3" d="M195.6,22.7h2.3l0.1,2.9c0.5-1.1,1.3-1.9,2.3-2.4s2.1-0.8,3.3-0.8c1.5,0,2.8,0.4,4,1.3
				l-1.1,2c-0.9-0.6-1.9-0.9-3.1-0.9c-1.6,0-2.9,0.6-3.9,1.6c-1.1,1.1-1.6,2.4-1.6,4v10.1h-2.4V22.7z"/>
			<path id="XMLID_1151_" class="st3" d="M225.5,15.3h2.4v25.2h-2.3l-0.1-3.6c-0.7,1.2-1.7,2.2-2.9,2.9c-1.3,0.7-2.6,1-4,1
				c-2.6,0-4.8-0.8-6.4-2.4s-2.5-3.9-2.5-6.8c0-2.9,0.8-5.1,2.5-6.8c1.7-1.6,3.8-2.4,6.4-2.4c1.5,0,2.8,0.3,4.1,1
				c1.3,0.7,2.2,1.6,2.9,2.9V15.3z M218.6,24.7c-1.9,0-3.5,0.6-4.8,1.8s-1.9,2.9-1.9,5.1c0,2.2,0.6,3.9,1.9,5.1
				c1.3,1.2,2.9,1.8,4.8,1.8s3.5-0.6,4.8-1.9c1.3-1.3,1.9-3,1.9-5c0-2-0.6-3.7-1.9-4.9C222.1,25.3,220.5,24.7,218.6,24.7z"/>
		</g>
		<g id="XMLID_5_">
			<path id="XMLID_1087_" class="st3" d="M85.9,32.1h-8.7v8.4h-2.5V15.3h11.3c1.2,0,2.3,0.2,3.3,0.6c1,0.4,1.9,0.9,2.5,1.5
				s1.2,1.4,1.7,2.2c0.5,0.8,0.7,1.7,0.8,2.6c0.1,0.9,0.1,1.8,0,2.8c-0.1,0.9-0.4,1.8-0.8,2.7c-0.5,0.9-1,1.6-1.7,2.3
				c-0.7,0.6-1.5,1.2-2.5,1.5S87.1,32.1,85.9,32.1z M77.1,17.7v12.1h8.7c1.1,0,2-0.2,2.9-0.7c0.9-0.4,1.5-1,1.9-1.7
				c0.4-0.7,0.8-1.5,1-2.3c0.2-0.9,0.2-1.7,0-2.6c-0.2-0.9-0.5-1.6-1-2.4c-0.4-0.7-1.1-1.3-1.9-1.7c-0.9-0.4-1.8-0.7-2.9-0.7H77.1z"
				/>
			<path id="XMLID_1090_" class="st3" d="M98.8,18.7c-0.6-0.3-0.9-0.8-0.9-1.5c0-0.7,0.3-1.2,0.8-1.5c0.6-0.3,1.1-0.3,1.7,0
				s0.9,0.8,0.9,1.5c0,0.7-0.3,1.2-0.8,1.5C99.9,18.9,99.3,18.9,98.8,18.7z M100.8,22.7h-2.4v17.9h2.4V22.7z"/>
			<path id="XMLID_1093_" class="st3" d="M122.9,40.5h-2.4v-10c0-1.9-0.5-3.3-1.5-4.3s-2.4-1.5-4.2-1.5c-1.7,0-3.1,0.6-4.2,1.8
				c-1.1,1.2-1.6,2.6-1.6,4.3v9.7h-2.4V22.7h2.3l0.1,3c1.4-2.2,3.5-3.3,6.2-3.3c2.4,0,4.3,0.7,5.7,2.1c1.5,1.4,2.2,3.4,2.2,6V40.5z"
				/>
			<path id="XMLID_1095_" class="st3" d="M128.3,15.3h2.4v10.9c0.6-1.2,1.6-2.2,2.9-2.9c1.3-0.7,2.6-1,4.1-1c2.6,0,4.7,0.8,6.4,2.4
				c1.7,1.6,2.5,3.9,2.5,6.8c0,2.9-0.8,5.1-2.5,6.8c-1.7,1.6-3.8,2.4-6.4,2.4c-3.2,0-5.5-1.2-7-3.7l-0.1,3.4h-2.3V15.3z M142.3,26.5
				c-1.3-1.2-2.9-1.8-4.8-1.8c-1.9,0-3.5,0.6-4.8,1.9c-1.3,1.3-1.9,2.9-1.9,4.9c0,2,0.6,3.7,1.9,5c1.3,1.3,2.9,1.9,4.8,1.9
				c1.9,0,3.5-0.6,4.8-1.8c1.3-1.2,1.9-2.9,1.9-5.1C144.2,29.4,143.6,27.7,142.3,26.5z"/>
			<path id="XMLID_1098_" class="st3" d="M159.1,22.4c2.6,0,4.8,0.9,6.5,2.6s2.6,3.9,2.6,6.7c0,2.7-0.9,4.9-2.6,6.6
				c-1.7,1.7-3.9,2.5-6.6,2.5c-2.6,0-4.8-0.8-6.6-2.5c-1.7-1.7-2.6-3.9-2.6-6.6c0-2.7,0.9-5,2.6-6.7
				C154.3,23.3,156.5,22.4,159.1,22.4z M164,26.6c-1.3-1.3-2.9-2-4.8-2s-3.6,0.7-4.8,2c-1.3,1.3-1.9,3-1.9,5.1c0,2.1,0.6,3.7,1.9,5
				s2.9,1.9,4.8,1.9c2,0,3.6-0.6,4.9-1.9c1.2-1.3,1.9-2.9,1.9-5C165.9,29.6,165.2,27.9,164,26.6z"/>
			<path id="XMLID_1101_" class="st3" d="M187.7,26.3v-3.5h2.3v17.8h-2.2V37c-0.7,1.3-1.8,2.2-3,2.9c-1.3,0.7-2.6,1-4,1
				c-2.6,0-4.8-0.9-6.5-2.6c-1.7-1.7-2.6-3.9-2.6-6.7c0-2.7,0.9-4.9,2.6-6.6c1.7-1.7,3.9-2.5,6.5-2.5c1.4,0,2.8,0.3,4.1,1
				S187,25.1,187.7,26.3z M180.8,24.7c-1.9,0-3.5,0.6-4.8,1.9s-1.9,3-1.9,5c0,2.1,0.6,3.7,1.9,5s2.9,1.9,4.8,1.9
				c1.2,0,2.4-0.3,3.4-0.8c1-0.5,1.7-1.2,2.3-2c0.5-0.8,0.9-1.7,1.1-2.7s0.2-2,0-3c-0.2-1-0.6-1.9-1.1-2.7s-1.3-1.5-2.3-2
				C183.1,24.9,182,24.7,180.8,24.7z"/>
			<path id="XMLID_1104_" class="st3" d="M195.6,22.7h2.3l0.1,2.9c0.5-1.1,1.3-1.9,2.3-2.4s2.1-0.8,3.3-0.8c1.5,0,2.8,0.4,4,1.3
				l-1.1,2c-0.9-0.6-1.9-0.9-3.1-0.9c-1.6,0-2.9,0.6-3.9,1.6c-1.1,1.1-1.6,2.4-1.6,4v10.1h-2.4V22.7z"/>
			<path id="XMLID_1106_" class="st3" d="M225.5,15.3h2.4v25.2h-2.3l-0.1-3.6c-0.7,1.2-1.7,2.2-2.9,2.9c-1.3,0.7-2.6,1-4,1
				c-2.6,0-4.8-0.8-6.4-2.4s-2.5-3.9-2.5-6.8c0-2.9,0.8-5.1,2.5-6.8c1.7-1.6,3.8-2.4,6.4-2.4c1.5,0,2.8,0.3,4.1,1
				c1.3,0.7,2.2,1.6,2.9,2.9V15.3z M218.6,24.7c-1.9,0-3.5,0.6-4.8,1.8s-1.9,2.9-1.9,5.1c0,2.2,0.6,3.9,1.9,5.1
				c1.3,1.2,2.9,1.8,4.8,1.8s3.5-0.6,4.8-1.9c1.3-1.3,1.9-3,1.9-5c0-2-0.6-3.7-1.9-4.9C222.1,25.3,220.5,24.7,218.6,24.7z"/>
		</g>
	</g>
</g>
<g id="Layer_2" class="st4">
	<g id="XMLID_760_" class="st5">
		<g id="XMLID_36_">
			<circle id="XMLID_40_" class="st0" cx="283.9" cy="30.5" r="27.9"/>
			<g id="XMLID_37_">
				<circle id="XMLID_39_" class="st1" cx="277.2" cy="30.5" r="9.2"/>
				<circle id="XMLID_38_" class="st2" cx="290.7" cy="30.5" r="9.2"/>
			</g>
		</g>
		<g>
			<path id="XMLID_1178_" class="st6" d="M335.9,32.1h-8.7v8.4h-2.5V15.3h11.3c1.2,0,2.3,0.2,3.3,0.6c1,0.4,1.9,0.9,2.5,1.5
				s1.2,1.4,1.7,2.2c0.5,0.8,0.7,1.7,0.8,2.6c0.1,0.9,0.1,1.8,0,2.8s-0.4,1.8-0.8,2.7c-0.5,0.9-1,1.6-1.7,2.3
				c-0.7,0.6-1.5,1.2-2.5,1.5C338.2,31.9,337.1,32.1,335.9,32.1z M327.1,17.7v12.1h8.7c1.1,0,2-0.2,2.9-0.7c0.9-0.4,1.5-1,1.9-1.7
				c0.4-0.7,0.8-1.5,1-2.3c0.2-0.9,0.2-1.7,0-2.6c-0.2-0.9-0.5-1.6-1-2.4c-0.4-0.7-1.1-1.3-1.9-1.7c-0.9-0.4-1.8-0.7-2.9-0.7H327.1z
				"/>
			<path id="XMLID_1181_" class="st6" d="M348.8,18.7c-0.6-0.3-0.9-0.8-0.9-1.5c0-0.7,0.3-1.2,0.8-1.5c0.6-0.3,1.1-0.3,1.7,0
				s0.9,0.8,0.9,1.5c0,0.7-0.3,1.2-0.8,1.5C349.9,18.9,349.3,18.9,348.8,18.7z M350.8,22.7h-2.4v17.9h2.4V22.7z"/>
			<path id="XMLID_1184_" class="st6" d="M372.9,40.5h-2.4v-10c0-1.9-0.5-3.3-1.5-4.3s-2.4-1.5-4.2-1.5c-1.7,0-3.1,0.6-4.2,1.8
				c-1.1,1.2-1.6,2.6-1.6,4.3v9.7h-2.4V22.7h2.3l0.1,3c1.4-2.2,3.5-3.3,6.2-3.3c2.4,0,4.3,0.7,5.7,2.1c1.5,1.4,2.2,3.4,2.2,6V40.5z"
				/>
			<path id="XMLID_1186_" class="st6" d="M378.3,15.3h2.4v10.9c0.6-1.2,1.6-2.2,2.9-2.9c1.3-0.7,2.6-1,4.1-1c2.6,0,4.7,0.8,6.4,2.4
				c1.7,1.6,2.5,3.9,2.5,6.8c0,2.9-0.8,5.1-2.5,6.8c-1.7,1.6-3.8,2.4-6.4,2.4c-3.2,0-5.5-1.2-7-3.7l-0.1,3.4h-2.3V15.3z M392.3,26.5
				c-1.3-1.2-2.9-1.8-4.8-1.8c-1.9,0-3.5,0.6-4.8,1.9c-1.3,1.3-1.9,2.9-1.9,4.9c0,2,0.6,3.7,1.9,5c1.3,1.3,2.9,1.9,4.8,1.9
				c1.9,0,3.5-0.6,4.8-1.8c1.3-1.2,1.9-2.9,1.9-5.1C394.2,29.4,393.6,27.7,392.3,26.5z"/>
			<path id="XMLID_1189_" class="st6" d="M409.1,22.4c2.6,0,4.8,0.9,6.5,2.6s2.6,3.9,2.6,6.7c0,2.7-0.9,4.9-2.6,6.6
				c-1.7,1.7-3.9,2.5-6.6,2.5c-2.6,0-4.8-0.8-6.6-2.5c-1.7-1.7-2.6-3.9-2.6-6.6c0-2.7,0.9-5,2.6-6.7
				C404.3,23.3,406.5,22.4,409.1,22.4z M414,26.6c-1.3-1.3-2.9-2-4.8-2s-3.6,0.7-4.8,2c-1.3,1.3-1.9,3-1.9,5.1c0,2.1,0.6,3.7,1.9,5
				s2.9,1.9,4.8,1.9c2,0,3.6-0.6,4.9-1.9c1.2-1.3,1.9-2.9,1.9-5C415.9,29.6,415.2,27.9,414,26.6z"/>
			<path id="XMLID_1192_" class="st6" d="M437.7,26.3v-3.5h2.3v17.8h-2.2V37c-0.7,1.3-1.8,2.2-3,2.9c-1.3,0.7-2.6,1-4,1
				c-2.6,0-4.8-0.9-6.5-2.6c-1.7-1.7-2.6-3.9-2.6-6.7c0-2.7,0.9-4.9,2.6-6.6c1.7-1.7,3.9-2.5,6.5-2.5c1.4,0,2.8,0.3,4.1,1
				S437,25.1,437.7,26.3z M430.8,24.7c-1.9,0-3.5,0.6-4.8,1.9s-1.9,3-1.9,5c0,2.1,0.6,3.7,1.9,5s2.9,1.9,4.8,1.9
				c1.2,0,2.4-0.3,3.4-0.8c1-0.5,1.7-1.2,2.3-2c0.5-0.8,0.9-1.7,1.1-2.7s0.2-2,0-3c-0.2-1-0.6-1.9-1.1-2.7s-1.3-1.5-2.3-2
				C433.1,24.9,432,24.7,430.8,24.7z"/>
			<path id="XMLID_1195_" class="st6" d="M445.6,22.7h2.3l0.1,2.9c0.5-1.1,1.3-1.9,2.3-2.4s2.1-0.8,3.3-0.8c1.5,0,2.8,0.4,4,1.3
				l-1.1,2c-0.9-0.6-1.9-0.9-3.1-0.9c-1.6,0-2.9,0.6-3.9,1.6c-1.1,1.1-1.6,2.4-1.6,4v10.1h-2.4V22.7z"/>
			<path id="XMLID_1197_" class="st6" d="M475.5,15.3h2.4v25.2h-2.3l-0.1-3.6c-0.7,1.2-1.7,2.2-2.9,2.9c-1.3,0.7-2.6,1-4,1
				c-2.6,0-4.8-0.8-6.4-2.4s-2.5-3.9-2.5-6.8c0-2.9,0.8-5.1,2.5-6.8c1.7-1.6,3.8-2.4,6.4-2.4c1.5,0,2.8,0.3,4.1,1
				c1.3,0.7,2.2,1.6,2.9,2.9V15.3z M468.6,24.7c-1.9,0-3.5,0.6-4.8,1.8s-1.9,2.9-1.9,5.1c0,2.2,0.6,3.9,1.9,5.1
				c1.3,1.2,2.9,1.8,4.8,1.8s3.5-0.6,4.8-1.9c1.3-1.3,1.9-3,1.9-5c0-2-0.6-3.7-1.9-4.9C472.1,25.3,470.5,24.7,468.6,24.7z"/>
		</g>
		<g id="XMLID_35_">
			<path id="XMLID_1109_" class="st6" d="M335.9,32.1h-8.7v8.4h-2.5V15.3h11.3c1.2,0,2.3,0.2,3.3,0.6c1,0.4,1.9,0.9,2.5,1.5
				s1.2,1.4,1.7,2.2c0.5,0.8,0.7,1.7,0.8,2.6c0.1,0.9,0.1,1.8,0,2.8s-0.4,1.8-0.8,2.7c-0.5,0.9-1,1.6-1.7,2.3
				c-0.7,0.6-1.5,1.2-2.5,1.5C338.2,31.9,337.1,32.1,335.9,32.1z M327.1,17.7v12.1h8.7c1.1,0,2-0.2,2.9-0.7c0.9-0.4,1.5-1,1.9-1.7
				c0.4-0.7,0.8-1.5,1-2.3c0.2-0.9,0.2-1.7,0-2.6c-0.2-0.9-0.5-1.6-1-2.4c-0.4-0.7-1.1-1.3-1.9-1.7c-0.9-0.4-1.8-0.7-2.9-0.7H327.1z
				"/>
			<path id="XMLID_1112_" class="st6" d="M348.8,18.7c-0.6-0.3-0.9-0.8-0.9-1.5c0-0.7,0.3-1.2,0.8-1.5c0.6-0.3,1.1-0.3,1.7,0
				s0.9,0.8,0.9,1.5c0,0.7-0.3,1.2-0.8,1.5C349.9,18.9,349.3,18.9,348.8,18.7z M350.8,22.7h-2.4v17.9h2.4V22.7z"/>
			<path id="XMLID_1115_" class="st6" d="M372.9,40.5h-2.4v-10c0-1.9-0.5-3.3-1.5-4.3s-2.4-1.5-4.2-1.5c-1.7,0-3.1,0.6-4.2,1.8
				c-1.1,1.2-1.6,2.6-1.6,4.3v9.7h-2.4V22.7h2.3l0.1,3c1.4-2.2,3.5-3.3,6.2-3.3c2.4,0,4.3,0.7,5.7,2.1c1.5,1.4,2.2,3.4,2.2,6V40.5z"
				/>
			<path id="XMLID_1117_" class="st6" d="M378.3,15.3h2.4v10.9c0.6-1.2,1.6-2.2,2.9-2.9c1.3-0.7,2.6-1,4.1-1c2.6,0,4.7,0.8,6.4,2.4
				c1.7,1.6,2.5,3.9,2.5,6.8c0,2.9-0.8,5.1-2.5,6.8c-1.7,1.6-3.8,2.4-6.4,2.4c-3.2,0-5.5-1.2-7-3.7l-0.1,3.4h-2.3V15.3z M392.3,26.5
				c-1.3-1.2-2.9-1.8-4.8-1.8c-1.9,0-3.5,0.6-4.8,1.9c-1.3,1.3-1.9,2.9-1.9,4.9c0,2,0.6,3.7,1.9,5c1.3,1.3,2.9,1.9,4.8,1.9
				c1.9,0,3.5-0.6,4.8-1.8c1.3-1.2,1.9-2.9,1.9-5.1C394.2,29.4,393.6,27.7,392.3,26.5z"/>
			<path id="XMLID_1120_" class="st6" d="M409.1,22.4c2.6,0,4.8,0.9,6.5,2.6s2.6,3.9,2.6,6.7c0,2.7-0.9,4.9-2.6,6.6
				c-1.7,1.7-3.9,2.5-6.6,2.5c-2.6,0-4.8-0.8-6.6-2.5c-1.7-1.7-2.6-3.9-2.6-6.6c0-2.7,0.9-5,2.6-6.7
				C404.3,23.3,406.5,22.4,409.1,22.4z M414,26.6c-1.3-1.3-2.9-2-4.8-2s-3.6,0.7-4.8,2c-1.3,1.3-1.9,3-1.9,5.1c0,2.1,0.6,3.7,1.9,5
				s2.9,1.9,4.8,1.9c2,0,3.6-0.6,4.9-1.9c1.2-1.3,1.9-2.9,1.9-5C415.9,29.6,415.2,27.9,414,26.6z"/>
			<path id="XMLID_1123_" class="st6" d="M437.7,26.3v-3.5h2.3v17.8h-2.2V37c-0.7,1.3-1.8,2.2-3,2.9c-1.3,0.7-2.6,1-4,1
				c-2.6,0-4.8-0.9-6.5-2.6c-1.7-1.7-2.6-3.9-2.6-6.7c0-2.7,0.9-4.9,2.6-6.6c1.7-1.7,3.9-2.5,6.5-2.5c1.4,0,2.8,0.3,4.1,1
				S437,25.1,437.7,26.3z M430.8,24.7c-1.9,0-3.5,0.6-4.8,1.9s-1.9,3-1.9,5c0,2.1,0.6,3.7,1.9,5s2.9,1.9,4.8,1.9
				c1.2,0,2.4-0.3,3.4-0.8c1-0.5,1.7-1.2,2.3-2c0.5-0.8,0.9-1.7,1.1-2.7s0.2-2,0-3c-0.2-1-0.6-1.9-1.1-2.7s-1.3-1.5-2.3-2
				C433.1,24.9,432,24.7,430.8,24.7z"/>
			<path id="XMLID_1126_" class="st6" d="M445.6,22.7h2.3l0.1,2.9c0.5-1.1,1.3-1.9,2.3-2.4s2.1-0.8,3.3-0.8c1.5,0,2.8,0.4,4,1.3
				l-1.1,2c-0.9-0.6-1.9-0.9-3.1-0.9c-1.6,0-2.9,0.6-3.9,1.6c-1.1,1.1-1.6,2.4-1.6,4v10.1h-2.4V22.7z"/>
			<path id="XMLID_1128_" class="st6" d="M475.5,15.3h2.4v25.2h-2.3l-0.1-3.6c-0.7,1.2-1.7,2.2-2.9,2.9c-1.3,0.7-2.6,1-4,1
				c-2.6,0-4.8-0.8-6.4-2.4s-2.5-3.9-2.5-6.8c0-2.9,0.8-5.1,2.5-6.8c1.7-1.6,3.8-2.4,6.4-2.4c1.5,0,2.8,0.3,4.1,1
				c1.3,0.7,2.2,1.6,2.9,2.9V15.3z M468.6,24.7c-1.9,0-3.5,0.6-4.8,1.8s-1.9,2.9-1.9,5.1c0,2.2,0.6,3.9,1.9,5.1
				c1.3,1.2,2.9,1.8,4.8,1.8s3.5-0.6,4.8-1.9c1.3-1.3,1.9-3,1.9-5c0-2-0.6-3.7-1.9-4.9C472.1,25.3,470.5,24.7,468.6,24.7z"/>
		</g>
	</g>
</g>
<g id="Layer_3" class="st4">
	<g id="XMLID_69_" class="st5">
		<circle id="XMLID_73_" class="st0" cx="538.9" cy="30.5" r="27.9"/>
		<g id="XMLID_70_">
			<circle id="XMLID_72_" class="st1" cx="532.2" cy="30.5" r="9.2"/>
			<circle id="XMLID_71_" class="st2" cx="545.6" cy="30.5" r="9.2"/>
		</g>
	</g>
</g>
</svg>
